<svg width="316" height="316" viewBox="0 0 316 316" fill="none" xmlns="http://www.w3.org/2000/svg">
<circle cx="158" cy="158" r="158" fill="#0066CC"/>
<path d="M158 316C245.261 316 316 245.261 316 158C316 146.562 314.785 135.409 312.476 124.661L250 66H224V85L205 66H178V74.5L167 66H83V224.5L67 250L133.383 314.094C141.404 315.349 149.626 316 158 316Z" fill="#003399"/>
<path d="M167 94V80V66H118H67V158.5V250H116.378H167V227V204V180V157H153.5H140V171.201V185H144.887H150V204V223H122.5H95V158.5V94.0386L131.5 94H167Z" fill="white"/>
<path d="M205 113V97.5V82V66H192L178 66V112.5V157H200.5H224V190V223H214.5H205V203.5V185H191.5H178V193V201V217V250H213.911H250V158V112V66L236.5 66L224 66V97.5V129H214.5H205V113Z" fill="white"/>
<path d="M148.5 128.899H167V123V116V102L134.887 102.034L102 102V157.224V213H116.38H130V171.166V128.899H148.5Z" fill="white"/>
</svg>
